<svg xmlns="http://www.w3.org/2000/svg" width="400" height="400" viewBox="0 0 400 400">
  <g fill="none" fill-rule="evenodd">
    <g transform="translate(96.817 37.037)">
      <path fill="#FFF" d="M16.8253708,351.972194 C7.53231239,351.972194 0,344.402764 0,335.059708 L0,16.9082827 C0,7.56943007 7.53231239,0 16.8253708,0 L172.134877,0 C181.427935,0 188.96443,7.56943007 188.96443,16.9082827 L188.96443,335.059708 C188.96443,344.402764 181.427935,351.972194 172.134877,351.972194 L16.8253708,351.972194 Z"/>
      <polygon fill="#404040" points="4 297.283 185 297.283 185 61.943 185 33.655 4 33.655"/>
      <path fill="#404040" d="M104.980239,321.122041 C104.980239,326.545017 100.591095,330.937999 95.1820833,330.937999 C89.7689429,330.937999 85.3839276,326.545017 85.3839276,321.122041 C85.3839276,315.699066 89.7689429,311.306084 95.1820833,311.306084 C100.591095,311.306084 104.980239,315.699066 104.980239,321.122041"/>
    </g>
    <g transform="translate(233.048 12.99)">
      <path fill="#2B2B2B" fill-rule="nonzero" d="M43.9524091,4.37232539 C66.5960838,4.37232539 84.9524091,22.9525083 84.9524091,45.8723254 C84.9524091,68.7921425 66.5960838,87.3723254 43.9524091,87.3723254 C21.3087344,87.3723254 2.9524091,68.7921425 2.9524091,45.8723254 C2.9524091,22.9525083 21.3087344,4.37232539 43.9524091,4.37232539 Z"/>
      <path fill="#FFF" fill-rule="nonzero" d="M43.9452163,0 C19.6749435,0 0,19.5755675 0,43.7232539 C0,67.8709402 19.6749435,87.4465078 43.9452163,87.4465078 C68.2154891,87.4465078 87.8904326,67.8709402 87.8904326,43.7232539 C87.8904326,19.5755675 68.2154891,0 43.9452163,0 Z M43.9452163,4.23128263 C65.866753,4.23128263 83.6376697,21.9124404 83.6376697,43.7232539 C83.6376697,65.5340673 65.866753,83.2152251 43.9452163,83.2152251 C22.0236796,83.2152251 4.25276287,65.5340673 4.25276287,43.7232539 C4.25276287,21.9124404 22.0236796,4.23128263 43.9452163,4.23128263 Z"/>
      <path fill="#FF4900" d="M47.7615114,58.5086174 L47.7615114,63.3987181 L37.9316604,63.3987181 L37.9316604,58.5086174 L47.7615114,58.5086174 Z M45.1811755,26.2339523 L45.1811755,29.383591 C50.3231091,30.4260852 54.2522234,34.8491062 54.5195339,40.2271637 L54.5195339,40.2271637 L54.5195339,47.2237694 L61.5233028,56.5525771 L24.169869,56.5525771 L31.1736378,47.2237694 L31.1736378,40.2271637 C31.4409483,34.8491062 35.3700626,30.4260852 40.5119963,29.383591 L40.5119963,29.383591 L40.5119963,26.2339523 L45.1811755,26.2339523 Z"/>
    </g>
    <path fill="#9B9B9B" d="M268.992807,185.696029 C273.411085,185.696029 276.992807,189.277751 276.992807,193.696029 L276.992807,221.419282 C276.992807,225.83756 273.411085,229.419282 268.992807,229.419282 L118.000985,229.419282 C113.582707,229.419282 110.000985,225.83756 110.000985,221.419282 L110.000985,193.696029 C110.000985,189.277751 113.582707,185.696029 118.000985,185.696029 L268.992807,185.696029 Z M141.581655,195.412307 L122.624034,195.412307 C121.13491,195.412307 119.917295,196.57477 119.829144,198.041739 L119.824034,198.212307 L119.824034,216.903004 C119.824034,218.392127 120.986497,219.609743 122.453465,219.697894 L122.624034,219.703004 L141.581655,219.703004 C143.070778,219.703004 144.288393,218.540541 144.376544,217.073572 L144.381655,216.903004 L144.381655,198.212307 C144.381655,196.723184 143.219192,195.505568 141.752223,195.417417 L141.581655,195.412307 Z M265.419759,210.593993 L152.27106,210.593993 C151.352886,210.593993 150.599867,211.301103 150.526861,212.200465 L150.52106,212.343993 L150.52106,217.953004 C150.52106,218.871177 151.22817,219.624196 152.127533,219.697203 L152.27106,219.703004 L265.419759,219.703004 C266.337932,219.703004 267.090951,218.995893 267.163958,218.096531 L267.169759,217.953004 L267.169759,212.343993 C267.169759,211.425819 266.462649,210.6728 265.563286,210.599794 L265.419759,210.593993 Z M196.04448,195.412307 L152.27106,195.412307 C151.352886,195.412307 150.599867,196.119417 150.526861,197.01878 L150.52106,197.162307 L150.52106,202.771318 C150.52106,203.689492 151.22817,204.442511 152.127533,204.515517 L152.27106,204.521318 L196.04448,204.521318 C196.962653,204.521318 197.715672,203.814208 197.788679,202.914846 L197.79448,202.771318 L197.79448,197.162307 C197.79448,196.244134 197.08737,195.491115 196.188007,195.418108 L196.04448,195.412307 Z M268.992807,133 C273.411085,133 276.992807,136.581722 276.992807,141 L276.992807,168.723254 C276.992807,173.141532 273.411085,176.723254 268.992807,176.723254 L118.000985,176.723254 C113.582707,176.723254 110.000985,173.141532 110.000985,168.723254 L110.000985,141 C110.000985,136.581722 113.582707,133 118.000985,133 L268.992807,133 Z M141.581655,142.716279 L122.624034,142.716279 C121.13491,142.716279 119.917295,143.878742 119.829144,145.34571 L119.824034,145.516279 L119.824034,164.206975 C119.824034,165.696099 120.986497,166.913714 122.453465,167.001865 L122.624034,167.006975 L141.581655,167.006975 C143.070778,167.006975 144.288393,165.844512 144.376544,164.377543 L144.381655,164.206975 L144.381655,145.516279 C144.381655,144.027155 143.219192,142.80954 141.752223,142.721389 L141.581655,142.716279 Z M265.419759,157.897964 L152.27106,157.897964 C151.352886,157.897964 150.599867,158.605074 150.526861,159.504437 L150.52106,159.647964 L150.52106,165.256975 C150.52106,166.175149 151.22817,166.928168 152.127533,167.001174 L152.27106,167.006975 L265.419759,167.006975 C266.337932,167.006975 267.090951,166.299865 267.163958,165.400502 L267.169759,165.256975 L267.169759,159.647964 C267.169759,158.729791 266.462649,157.976772 265.563286,157.903765 L265.419759,157.897964 Z M196.04448,142.716279 L152.27106,142.716279 C151.352886,142.716279 150.599867,143.423389 150.526861,144.322751 L150.52106,144.466279 L150.52106,150.07529 C150.52106,150.993463 151.22817,151.746482 152.127533,151.819489 L152.27106,151.82529 L196.04448,151.82529 C196.962653,151.82529 197.715672,151.11818 197.788679,150.218817 L197.79448,150.07529 L197.79448,144.466279 C197.79448,143.548105 197.08737,142.795086 196.188007,142.72208 L196.04448,142.716279 Z"/>
  </g>
</svg>
