<svg xmlns="http://www.w3.org/2000/svg" width="400" height="400" viewBox="0 0 400 400">
  <g fill="none" fill-rule="evenodd" transform="translate(96.817 12.99)">
    <g transform="translate(0 24.048)">
      <path fill="#000" d="M172.134877,351.972194 L16.8253708,351.972194 C7.53231239,351.972194 0,344.402764 0,335.059708 L0,16.9082827 C0,7.56943007 7.53231239,0 16.8253708,0 L172.134877,0 C181.427935,0 188.96443,7.56943007 188.96443,16.9082827 L188.96443,335.059708 C188.96443,344.402764 181.427935,351.972194 172.134877,351.972194"/>
      <polygon fill="#F1F1F1" points="0 297.283 188.964 297.283 188.964 33.655 0 33.655"/>
      <path fill="#F2F2F1" d="M104.980239,321.122041 C104.980239,326.545017 100.591095,330.937999 95.1820833,330.937999 C89.7689429,330.937999 85.3839276,326.545017 85.3839276,321.122041 C85.3839276,315.699066 89.7689429,311.306084 95.1820833,311.306084 C100.591095,311.306084 104.980239,315.699066 104.980239,321.122041"/>
    </g>
    <g transform="translate(136.23)">
      <path fill="#FFF" fill-rule="nonzero" d="M43.9524091,4.37232539 C66.5960838,4.37232539 84.9524091,22.9525083 84.9524091,45.8723254 C84.9524091,68.7921425 66.5960838,87.3723254 43.9524091,87.3723254 C21.3087344,87.3723254 2.9524091,68.7921425 2.9524091,45.8723254 C2.9524091,22.9525083 21.3087344,4.37232539 43.9524091,4.37232539 Z"/>
      <path fill="#000" fill-rule="nonzero" d="M43.9452163,0 C19.6749435,0 0,19.5755675 0,43.7232539 C0,67.8709402 19.6749435,87.4465078 43.9452163,87.4465078 C68.2154891,87.4465078 87.8904326,67.8709402 87.8904326,43.7232539 C87.8904326,19.5755675 68.2154891,0 43.9452163,0 Z M43.9452163,4.23128263 C65.866753,4.23128263 83.6376697,21.9124404 83.6376697,43.7232539 C83.6376697,65.5340673 65.866753,83.2152251 43.9452163,83.2152251 C22.0236796,83.2152251 4.25276287,65.5340673 4.25276287,43.7232539 C4.25276287,21.9124404 22.0236796,4.23128263 43.9452163,4.23128263 Z"/>
      <path fill="#FF4900" d="M47.7615114,58.5086174 L47.7615114,63.3987181 L37.9316604,63.3987181 L37.9316604,58.5086174 L47.7615114,58.5086174 Z M45.1811755,26.2339523 L45.1811755,29.383591 C50.3231091,30.4260852 54.2522234,34.8491062 54.5195339,40.2271637 L54.5195339,40.2271637 L54.5195339,47.2237694 L61.5233028,56.5525771 L24.169869,56.5525771 L31.1736378,47.2237694 L31.1736378,40.2271637 C31.4409483,34.8491062 35.3700626,30.4260852 40.5119963,29.383591 L40.5119963,29.383591 L40.5119963,26.2339523 L45.1811755,26.2339523 Z"/>
    </g>
    <path fill="#9B9B9B" d="M172.175387,172.706853 C176.593665,172.706853 180.175387,176.288575 180.175387,180.706853 L180.175387,208.430107 C180.175387,212.848385 176.593665,216.430107 172.175387,216.430107 L21.1835649,216.430107 C16.7652869,216.430107 13.1835649,212.848385 13.1835649,208.430107 L13.1835649,180.706853 C13.1835649,176.288575 16.7652869,172.706853 21.1835649,172.706853 L172.175387,172.706853 Z M44.7642341,182.423131 L25.8066132,182.423131 C24.3174899,182.423131 23.0998743,183.585594 23.0117233,185.052563 L23.0066132,185.223131 L23.0066132,203.913828 C23.0066132,205.402951 24.1690761,206.620567 25.636045,206.708718 L25.8066132,206.713828 L44.7642341,206.713828 C46.2533574,206.713828 47.470973,205.551365 47.559124,204.084396 L47.5642341,203.913828 L47.5642341,185.223131 C47.5642341,183.734008 46.4017712,182.516393 44.9348023,182.428242 L44.7642341,182.423131 Z M168.602338,197.604817 L55.4536393,197.604817 C54.5354659,197.604817 53.782447,198.311927 53.7094405,199.21129 L53.7036393,199.354817 L53.7036393,204.963828 C53.7036393,205.882001 54.4107496,206.63502 55.3101121,206.708027 L55.4536393,206.713828 L168.602338,206.713828 C169.520512,206.713828 170.273531,206.006718 170.346537,205.107355 L170.352338,204.963828 L170.352338,199.354817 C170.352338,198.436643 169.645228,197.683624 168.745866,197.610618 L168.602338,197.604817 Z M99.2270595,182.423131 L55.4536393,182.423131 C54.5354659,182.423131 53.782447,183.130242 53.7094405,184.029604 L53.7036393,184.173131 L53.7036393,189.782143 C53.7036393,190.700316 54.4107496,191.453335 55.3101121,191.526341 L55.4536393,191.532143 L99.2270595,191.532143 C100.145233,191.532143 100.898252,190.825032 100.971258,189.92567 L100.977059,189.782143 L100.977059,184.173131 C100.977059,183.254958 100.269949,182.501939 99.3705867,182.428933 L99.2270595,182.423131 Z M172.175387,120.010824 C176.593665,120.010824 180.175387,123.592546 180.175387,128.010824 L180.175387,155.734078 C180.175387,160.152356 176.593665,163.734078 172.175387,163.734078 L21.1835649,163.734078 C16.7652869,163.734078 13.1835649,160.152356 13.1835649,155.734078 L13.1835649,128.010824 C13.1835649,123.592546 16.7652869,120.010824 21.1835649,120.010824 L172.175387,120.010824 Z M44.7642341,129.727103 L25.8066132,129.727103 C24.3174899,129.727103 23.0998743,130.889566 23.0117233,132.356535 L23.0066132,132.527103 L23.0066132,151.2178 C23.0066132,152.706923 24.1690761,153.924538 25.636045,154.01269 L25.8066132,154.0178 L44.7642341,154.0178 C46.2533574,154.0178 47.470973,152.855337 47.559124,151.388368 L47.5642341,151.2178 L47.5642341,132.527103 C47.5642341,131.03798 46.4017712,129.820364 44.9348023,129.732213 L44.7642341,129.727103 Z M168.602338,144.908788 L55.4536393,144.908788 C54.5354659,144.908788 53.782447,145.615899 53.7094405,146.515261 L53.7036393,146.658788 L53.7036393,152.2678 C53.7036393,153.185973 54.4107496,153.938992 55.3101121,154.011998 L55.4536393,154.0178 L168.602338,154.0178 C169.520512,154.0178 170.273531,153.310689 170.346537,152.411327 L170.352338,152.2678 L170.352338,146.658788 C170.352338,145.740615 169.645228,144.987596 168.745866,144.91459 L168.602338,144.908788 Z M99.2270595,129.727103 L55.4536393,129.727103 C54.5354659,129.727103 53.782447,130.434213 53.7094405,131.333576 L53.7036393,131.477103 L53.7036393,137.086114 C53.7036393,138.004288 54.4107496,138.757307 55.3101121,138.830313 L55.4536393,138.836114 L99.2270595,138.836114 C100.145233,138.836114 100.898252,138.129004 100.971258,137.229641 L100.977059,137.086114 L100.977059,131.477103 C100.977059,130.55893 100.269949,129.805911 99.3705867,129.732904 L99.2270595,129.727103 Z"/>
  </g>
</svg>
