<?xml version="1.0" encoding="utf-8"?>
<!-- Generator: Adobe Illustrator 23.0.6, SVG Export Plug-In . SVG Version: 6.00 Build 0)  -->
<svg version="1.1" id="Layer_1" xmlns="http://www.w3.org/2000/svg" xmlns:xlink="http://www.w3.org/1999/xlink" x="0px" y="0px"
	 viewBox="0 0 64 64" style="enable-background:new 0 0 64 64;" xml:space="preserve">
<style type="text/css">
	.st0{fill:#FFFFFF;}
</style>
<g>
	<path class="st0" d="M33.7297287,3.4594595c-2.5378151,0-5.002491,0.3128378-7.3580856,0.901119
		C23.5719814,1.660948,19.7639561,0,15.5675678,0C6.9698372,0,0,6.9698267,0,15.5675678
		c0,4.1963787,1.6609586,8.0044022,4.3605785,10.8040752c-0.5882707,2.3555946-0.901119,4.8202591-0.901119,7.3580856
		C3.4594595,50.4475288,17.011919,64,33.7297287,64S64,50.4475288,64,33.7297287
		C64,17.0119095,50.4475403,3.4594595,33.7297287,3.4594595z"/>
	<path d="M33.7297287,5.189189c-2.0651588,0-4.0783138,0.2213264-6.0189819,0.6379857
		c2.1419563,2.6668925,3.4243889,6.0536323,3.4243889,9.7403927c0,8.5977192-6.9698486,15.5675678-15.5675678,15.5675678
		c-3.6867609,0-7.0734797-1.2824326-9.7403927-3.4243889c-0.4166594,1.9406681-0.6379857,3.9538231-0.6379857,6.0189819
		c0,15.7625008,12.7780409,28.5405426,28.5405388,28.5405426s28.5405426-12.7780418,28.5405426-28.5405426
		C62.2702713,17.9672089,49.4922295,5.189189,33.7297287,5.189189z M34.6864662,46.7027016H19.9108105V32.3147812
		c4.8602314-1.2568626,8.8910046-4.5737972,11.106884-8.9634304h3.637289c13.4690666,0,16.4479294,6.1818314,16.4479294,11.6756763
		C51.1029129,40.3328323,48.595314,46.7027016,34.6864662,46.7027016z"/>
	<path d="M33.8056183,29.405405h-5.1891918v11.2432423h5.1891918c7.730793,0,8.6486473-3.3322639,8.6486473-5.6216202
		C42.4542656,32.7305946,41.5364113,29.405405,33.8056183,29.405405z"/>
	<path d="M15.5675678,1.7297298c-7.6424198,0-13.8378382,6.1953969-13.8378382,13.8378382
		c0,7.6424198,6.1954184,13.8378372,13.8378382,13.8378372S29.405405,23.2099876,29.405405,15.5675678
		C29.405405,7.9251266,23.2099876,1.7297298,15.5675678,1.7297298z M17.2972965,24.216217h-5.189188V12.1081085h-1.7297306
		l3.4594603-5.1891894h3.4594584V24.216217z"/>
</g>
</svg>
